<svg xmlns="http://www.w3.org/2000/svg" version="1.1" xmlns:xlink="http://www.w3.org/1999/xlink" xmlns:svgjs="http://svgjs.dev/svgjs" width="3840" height="8000" preserveAspectRatio="none" viewBox="0 0 3840 8000">
    <g mask="url(&quot;#SvgjsMask1054&quot;)" fill="none">
        <path d="M571.91 0C800.2 81.84 763.15 344.15 960 344.15C1164.47 344.15 1136.02 85.51 1374.55 0C1616.02 -86.57 1647.28 0 1920 0C2235.79 0 2432.57 -190.41 2551.58 0C2732.57 289.59 2418.93 516.83 2520 960C2583.14 1236.83 2641.06 1433.32 2880 1440C3301.06 1451.78 3583.73 868.79 3840 996.92C4063.73 1108.79 3840 1458.46 3840 1920C3840 2307.1 3902.31 2330.72 3840 2694.19C3820.02 2810.72 3675.43 2799.33 3675.43 2880C3675.43 2942.76 3824.9 2892.94 3840 2981.05C3907.18 3372.94 3840 3410.52 3840 3840C3840 4320 3840 4320 3840 4800C3840 5280 3840 5280 3840 5760C3840 6240 3840 6240 3840 6720C3840 7200 4010.95 7680 3840 7680C3619.37 7680 3256.48 7260.19 3056.84 6720C2901.69 6300.19 3151.82 6237.43 3130.43 5760C3108.81 5277.43 3052.16 5279.74 2970.81 4800C2926.94 4541.28 2926.34 4283.08 2880 4283.08C2833.61 4283.08 2939.87 4605.69 2785.35 4800C2459.87 5209.32 2352.01 5144.35 1920 5490.34C1752.67 5624.35 1586.67 5612.76 1586.67 5760C1586.67 5929.41 1738.42 5957.46 1920 6123.64C2262.9 6437.46 2446.67 6337.05 2635.64 6720C2830.67 7115.23 2588.48 7246.18 2688 7680C2710.66 7778.79 2796.17 7715.35 2880 7785.21C3372.17 8195.35 3840 8395.33 3840 8640C3840 8822.73 3360 8640 2880 8640C2400 8640 2400 8640 1920 8640C1440 8640 1440 8640 960 8640C634.28 8640 614.44 8705.54 308.57 8640C134.44 8602.69 50.85 8592.5 0 8434.29C-103.43 8112.5 0 8057.15 0 7680C0 7328 -88.6 7289.81 0 6976C46.93 6809.81 263.14 6887.14 271.06 6720C291.94 6279.14 -98.16 6152.93 57.6 5760C246.31 5283.97 522.85 5384.36 960 4982.07C1044.45 4904.36 1100.8 4904.32 1100.8 4800C1100.8 4573.28 1148.55 4402.22 960 4320C598.15 4162.22 320 4480 0 4320C-160 4240 0 4080 0 3840C0 3360 0 3360 0 2880C0 2584.61 -22.21 2582.45 0 2289.23C14.15 2102.45 72.73 2101.56 72.73 1920C72.73 1820.95 7.67 1829.25 0 1728C-28.69 1349.25 0 1344 0 960C0 480 -179.2 300.8 0 0C106.76 -179.2 320.2 -90.23 571.91 0" stroke="rgba(147, 177, 82, 1)" stroke-width="2"></path>
        <path d="M3840 896C3707.2 896 3342.22 301.55 3342.22 0C3342.22 -146.45 3751.11 -160 3840 0C4000 288 3956.09 896 3840 896" stroke="rgba(147, 177, 82, 1)" stroke-width="2"></path>
        <path d="M342.86 960C447.13 736.39 647.76 796.98 960 796.98C1436.33 796.98 1766.22 685.16 1920 960C2080.4 1246.67 1588.36 1482.73 1588.36 1920C1588.36 2112.24 1725.34 2115.68 1920 2219.02C2371.16 2458.53 2463.91 2348.61 2880 2605.71C2998.77 2679.1 2989.71 2748.38 2989.71 2880C2989.71 2969.01 2963.19 2994.7 2880 3046.96C2428.33 3330.7 2346.35 3597.58 1920 3552C1565.45 3514.1 1620.13 3215.08 1318.21 2880C1140.13 2682.36 1139.97 2682.48 960 2486.56C699.05 2202.48 573.49 2259.2 436.36 1920C264.92 1495.92 185.31 1297.9 342.86 960" stroke="rgba(147, 177, 82, 1)" stroke-width="2"></path>
        <path d="M61.28 0C61.28 154.13 15.43 360 0 360C-15.21 360 -26.18 153.82 0 0C4.46 -26.18 61.28 -25.87 61.28 0" stroke="rgba(147, 177, 82, 1)" stroke-width="2"></path>
        <path d="M3285.33 3840C3400.84 3543.65 3668.77 3402.11 3840 3402.11C3946.1 3402.11 3840 3621.06 3840 3840C3840 4320 3840 4320 3840 4800C3840 5203.2 3963.45 5606.4 3840 5606.4C3691.02 5606.4 3434.75 5244.61 3295.14 4800C3157.42 4361.41 3128.41 4242.6 3285.33 3840" stroke="rgba(147, 177, 82, 1)" stroke-width="2"></path>
        <path d="M1420.8 4800C1420.8 4499.23 1666.03 4143.16 1920 4143.16C2179.29 4143.16 2447.32 4500.83 2447.32 4800C2447.32 5039.59 2180.83 5220.67 1920 5220.67C1667.57 5220.67 1420.8 5037.99 1420.8 4800" stroke="rgba(147, 177, 82, 1)" stroke-width="2"></path>
        <path d="M537.6 5760C612.3 5516.74 765.34 5395.86 960 5395.86C1123.21 5395.86 1098.99 5584.53 1253.33 5760C1578.99 6130.23 1574.38 6136.51 1920 6487.27C2047.35 6616.51 2176.31 6556.99 2199.27 6720C2260.31 7153.35 1912.05 7319.7 2088 7680C2252.42 8016.69 2511.44 7858.09 2880 8113.97C3202.82 8338.09 3470.77 8489.43 3470.77 8640C3470.77 8752.45 3175.39 8640 2880 8640C2400 8640 2400 8640 1920 8640C1440 8640 1440 8640 960 8640C848.57 8640 833.62 8689.39 737.14 8640C353.62 8443.67 241.07 8462.52 0 8148.57C-127.5 7982.52 0 7914.28 0 7680C0 7461.33 -100.97 7417.81 0 7242.67C175.74 6937.81 434.54 7047.83 553.41 6720C703.34 6306.5 409 6178.81 537.6 5760" stroke="rgba(147, 177, 82, 1)" stroke-width="2"></path>
        <path d="M3372.63 6720C3372.63 6342.86 3714.39 5930.67 3840 5930.67C3948.08 5930.67 3840 6325.33 3840 6720C3840 7006.45 3942.02 7292.9 3840 7292.9C3708.34 7292.9 3372.63 7023.97 3372.63 6720" stroke="rgba(147, 177, 82, 1)" stroke-width="2"></path>
        <path d="M800 1920C800 1738.91 873.35 1528.89 960 1528.89C1049.35 1528.89 1152 1742.94 1152 1920C1152 2025.05 1052.06 2093.11 960 2093.11C876.06 2093.11 800 2021.02 800 1920" stroke="rgba(147, 177, 82, 1)" stroke-width="2"></path>
        <path d="M1676.42 2880C1676.42 2745.73 1779.69 2612.46 1920 2612.46C2116.22 2612.46 2349.47 2745.43 2349.47 2880C2349.47 3015.2 2115.85 3152 1920 3152C1779.33 3152 1676.42 3015.5 1676.42 2880" stroke="rgba(147, 177, 82, 1)" stroke-width="2"></path>
        <path d="M3818.67 3840C3821.64 3826.83 3833.42 3823.16 3840 3823.16C3844.08 3823.16 3840 3831.58 3840 3840C3840 4320 3840 4320 3840 4800C3840 4963.2 3889.97 5126.4 3840 5126.4C3779.7 5126.4 3622.52 4984.35 3619.46 4800C3611.85 4341.15 3711.37 4315.25 3818.67 3840" stroke="rgba(147, 177, 82, 1)" stroke-width="2"></path>
        <path d="M1740.8 4800C1740.8 4692.03 1828.83 4564.21 1920 4564.21C2013.08 4564.21 2109.3 4692.61 2109.3 4800C2109.3 4886.01 2013.64 4951.01 1920 4951.01C1829.39 4951.01 1740.8 4885.43 1740.8 4800" stroke="rgba(147, 177, 82, 1)" stroke-width="2"></path>
        <path d="M835.76 6720C835.76 6348.01 812.06 5965.71 960 5965.71C1138.18 5965.71 1488 6390.39 1488 6720C1488 6949.61 1163.84 7084.14 960 7084.14C837.72 7084.14 835.76 6907.22 835.76 6720" stroke="rgba(147, 177, 82, 1)" stroke-width="2"></path>
        <path d="M3688.42 6720C3688.42 6597.68 3799.26 6464 3840 6464C3875.05 6464 3840 6592 3840 6720C3840 6812.91 3873.09 6905.81 3840 6905.81C3797.3 6905.81 3688.42 6818.59 3688.42 6720" stroke="rgba(147, 177, 82, 1)" stroke-width="2"></path>
        <path d="M0 7509.33C166.9 7509.33 451.76 7592.02 451.76 7680C451.76 7768.79 164.25 7862.86 0 7862.86C-61.63 7862.86 0 7771.43 0 7680C0 7594.67 -58.98 7509.33 0 7509.33" stroke="rgba(147, 177, 82, 1)" stroke-width="2"></path>
        <path d="M2510.77 8640C2510.77 8587.59 2707.12 8442.74 2880 8442.74C3002.5 8442.74 3101.54 8583.54 3101.54 8640C3101.54 8682.17 2990.77 8640 2880 8640C2695.39 8640 2510.77 8686.22 2510.77 8640" stroke="rgba(147, 177, 82, 1)" stroke-width="2"></path>
    </g>
    <defs>
        <mask id="SvgjsMask1054">
            <rect width="3840" height="8000" fill="#ffffff"></rect>
        </mask>
    </defs>
</svg>