<svg width="168" height="57" viewBox="0 0 168 57" fill="none" xmlns="http://www.w3.org/2000/svg">
<path d="M25.94 43.3412C25.7848 43.3591 25.5422 43.3019 25.2124 43.1696C24.8955 43.0358 24.4221 42.7955 23.7922 42.4487C23.1768 42.1135 22.4786 41.7419 21.6975 41.3339L10.3878 35.5024L7.75597 39.9547C7.79628 40.3039 7.78162 40.5743 7.71197 40.7658C7.64084 40.9444 7.47443 41.2061 7.21276 41.5509C6.58644 42.3703 6.04345 43.0032 5.58377 43.4494C5.13703 43.8942 4.71317 44.1398 4.31219 44.186C4.11817 44.2084 3.94031 44.1438 3.77861 43.992C3.61841 43.8532 3.52488 43.6674 3.498 43.4346C3.46217 43.1242 3.59548 42.6893 3.89794 42.1301L8.76767 34.4115C8.37014 33.92 8.13928 33.3961 8.07508 32.8399C8.00939 32.2708 8.10862 31.7678 8.37278 31.331C8.64987 30.8927 8.98119 30.5267 9.36674 30.2332C9.75229 29.9397 10.8254 29.1866 12.586 27.9742C14.843 24.1354 15.9469 22.0025 15.8976 21.5757C15.8647 21.2911 15.6802 21.1682 15.3439 21.2071C14.9946 21.2474 14.2424 21.5439 13.0872 22.0967C11.945 22.648 10.4473 23.4696 8.59414 24.5617C6.75244 25.6394 4.57693 27.0046 2.0676 28.6574C1.86114 28.7992 1.61488 28.8801 1.32882 28.9C1.0542 28.9054 0.80868 28.8224 0.592261 28.6507C0.374348 28.4662 0.245983 28.2057 0.207165 27.8694C0.195221 27.766 0.206907 27.6401 0.242223 27.4918C0.264605 27.3451 0.310366 27.117 0.379506 26.8075C0.447154 26.4851 0.506345 26.203 0.557081 25.9613C0.573992 25.8807 0.6001 25.5958 0.635403 25.1068C0.683641 24.6163 0.801779 24.1635 0.989818 23.7486C1.17636 23.3207 1.52012 22.8354 2.02108 22.2926C2.53498 21.7483 3.28518 21.1506 4.2717 20.4993C4.45229 20.3605 4.62516 20.2684 4.79033 20.2232C4.95401 20.165 5.04331 20.2005 5.05824 20.3299C5.06272 20.3687 4.88736 20.5528 4.53216 20.8821C4.1884 21.197 3.82673 21.6975 3.44717 22.3836C7.07189 20.6283 9.74615 19.3824 11.47 18.6461C13.2052 17.8953 14.6161 17.4572 15.7026 17.3318C16.2977 17.2631 16.8427 17.6131 17.3377 18.3817C17.8313 19.1374 18.0922 19.6381 18.1206 19.8838C18.1624 20.246 18.0671 20.6699 17.8348 21.1555L15.2679 26.1704C17.5852 24.6708 19.3819 23.4869 20.658 22.6188C21.9455 21.7361 23.3426 20.7819 24.8495 19.756C26.3549 18.7171 27.3091 18.0696 27.7121 17.8134C28.1135 17.5442 28.379 17.4022 28.5083 17.3872C28.8058 17.3529 28.9702 17.4715 29.0016 17.7432C29.0195 17.8984 28.8424 18.3514 28.4703 19.1021C28.1097 19.8384 27.6898 20.516 27.2107 21.1349C26.7302 21.7409 26.3088 22.0648 25.9466 22.1066C25.8561 22.1171 25.7439 22.1104 25.6101 22.0865C25.4747 22.0497 25.3466 22.0186 25.2257 21.9932C23.584 23.1002 21.5672 24.4209 19.1753 25.9553C16.7963 27.4882 14.9163 28.6882 13.5353 29.5554L12.1556 32.2509L22.763 37.7899C23.7386 38.2934 24.4478 38.703 24.8906 39.0189C25.3463 39.3333 25.6958 39.6928 25.9391 40.0972C26.1953 40.5002 26.3608 41.025 26.4354 41.6718C26.5579 42.7325 26.3927 43.2889 25.94 43.3412Z" fill="#E3B23C"/>
<path d="M29.1357 30.9988C30.8958 28.9868 32.6506 27.4408 34.4003 26.3607C36.15 25.2805 37.5293 24.6822 38.5382 24.5658C38.8098 24.5344 39.0755 24.6217 39.3352 24.8277C39.5934 25.0207 39.8044 25.2585 39.9681 25.541C40.1447 25.8221 40.2412 26.0338 40.2576 26.1761C40.2845 26.4089 40.2141 26.594 40.0465 26.7313C39.8773 26.8557 39.5753 27.0216 39.1405 27.2291C39.255 27.4256 39.402 27.6773 39.5816 27.9843C39.7612 28.2912 39.9018 28.5437 40.0033 28.7417C40.1033 28.9268 40.1622 29.0969 40.1801 29.2521C40.216 29.5626 39.9663 30.1812 39.431 31.1081C38.9071 32.0205 38.539 32.6922 38.3266 33.123C38.1271 33.5524 38.061 34.0581 38.1282 34.6402C38.2386 35.5973 38.7337 36.0252 39.6133 35.9236C40.5187 35.8191 41.8373 34.8084 43.569 32.8915L43.7056 34.075C40.8526 38.0875 38.7212 40.1751 37.3112 40.3378C36.8068 40.396 36.4252 40.2697 36.1665 39.9588C35.9222 39.6593 35.7627 39.1862 35.6881 38.5394C35.5701 37.5176 35.7678 35.9939 36.2812 33.9686C34.6345 36.282 33.4035 37.938 32.5882 38.9365C31.7713 39.9221 31.0654 40.4493 30.4704 40.5179C30.1858 40.5508 29.8017 40.3461 29.3181 39.9038C28.8345 39.4616 28.3798 38.8718 27.9539 38.1345C27.5395 37.3828 27.2837 36.5866 27.1867 35.7458C27.1165 35.1378 27.1165 34.6267 27.1866 34.2122C27.2553 33.7849 27.4331 33.3384 27.7201 32.8727C28.0072 32.407 28.479 31.7824 29.1357 30.9988ZM38.1831 27.7918C34.9977 29.7193 32.7491 31.3026 31.4372 32.542C30.1383 33.7798 29.5545 34.9679 29.6859 36.1061C29.7337 36.52 29.8444 36.8546 30.018 37.1098C30.1902 37.3521 30.3991 37.4591 30.6449 37.4307C30.7872 37.4143 31.0289 37.2946 31.3702 37.0717C32.6358 36.113 33.7574 34.9284 34.7349 33.5179C35.711 32.0945 36.8604 30.1858 38.1831 27.7918Z" fill="#E3B23C"/>
<path d="M43.3646 34.5273L43.2078 33.1691C44.7918 30.994 46.137 28.9644 47.2433 27.0803C48.3626 25.1947 49.2449 23.6969 49.8901 22.587C50.5353 21.477 51.1251 20.6815 51.6594 20.2004C52.1922 19.7064 52.8983 19.4086 53.7779 19.3071C54.2177 19.2563 54.457 19.3991 54.4958 19.7354C54.5272 20.007 54.3924 20.4289 54.0914 21.001C53.8034 21.5717 53.4134 22.1672 52.9214 22.7876C52.2677 23.5971 51.6486 24.5926 51.0641 25.7742C50.491 26.9413 49.856 28.4237 49.1591 30.2212C49.7948 29.5973 50.5229 28.8644 51.3433 28.0226C52.175 27.1664 52.8516 26.4985 53.373 26.0189C53.9058 25.5248 54.4361 25.1228 54.9639 24.8129C55.5047 24.5014 56.0597 24.3128 56.6288 24.2471C56.991 24.2053 57.2313 24.2431 57.3497 24.3605C57.481 24.4765 57.5683 24.722 57.6116 25.0971C57.7251 26.0801 57.597 27.0714 57.2274 28.0709C56.8563 29.0575 56.2828 30.1067 55.5067 31.2187C54.7307 32.3306 53.7581 33.557 52.589 34.8978C53.0612 35.0137 53.5365 35.044 54.0151 34.9888C55.5156 34.8156 57.3948 33.4387 59.6529 30.8581L59.8141 32.255C58.9326 33.2481 58.0645 34.1871 57.2098 35.0722C56.3681 35.9558 55.5602 36.6782 54.7861 37.2394C54.012 37.8006 53.2757 38.1216 52.5772 38.2022C52.3185 38.232 52.0367 38.2318 51.7317 38.2015C51.4412 38.1826 51.1685 38.1485 50.9138 38.0993C50.6576 38.0371 50.3265 37.9508 49.9205 37.8404C49.5146 37.7299 49.2044 37.6543 48.99 37.6135C48.588 37.7648 48.3611 37.8434 48.3094 37.8494C47.8567 37.9016 47.3054 37.7818 46.6557 37.4897C46.3244 38.3669 45.9754 39.4885 45.6088 40.8546C45.2566 42.2322 44.9507 43.3292 44.6911 44.1456C44.4314 44.962 44.0516 45.7596 43.5516 46.5382C43.2656 46.8989 43.0579 47.0867 42.9285 47.1016C42.3723 47.1658 42.0375 46.7064 41.924 45.7233C41.8255 44.8696 41.8971 43.9569 42.1388 42.9853C42.3691 42.0281 42.6888 41.1065 43.0977 40.2204C43.4936 39.3358 43.9406 38.4388 44.4386 37.5294C44.935 36.607 45.2823 35.9247 45.4803 35.4824C47.1179 31.7282 48.3632 28.5501 49.2164 25.9481C46.6594 29.9133 44.7088 32.773 43.3646 34.5273ZM51.3517 34.5687C52.477 33.0757 53.2956 31.8212 53.8075 30.8053C54.3323 29.7879 54.5656 29.027 54.5074 28.5225C54.4521 28.0439 54.1852 27.8322 53.7066 27.8875C53.0599 27.9621 52.2099 28.6042 51.1568 29.8136C50.115 31.0087 49.0778 32.5833 48.0451 34.5375C48.9903 34.3236 49.6269 34.2173 49.9547 34.2188C50.2811 34.2073 50.7468 34.324 51.3517 34.5687Z" fill="#E3B23C"/>
<path d="M66.5061 21.4162C66.1827 21.4535 65.8581 21.3665 65.5322 21.1551C65.2193 20.9421 65.0411 20.6481 64.9978 20.273C64.9321 19.7039 65.1306 19.0387 65.5933 18.2775C66.0559 17.5163 66.5783 17.1021 67.1603 17.035C67.5484 16.9902 67.886 17.0757 68.173 17.2916C68.4586 17.4946 68.6275 17.8224 68.6798 18.2752C68.744 18.8314 68.5497 19.4764 68.097 20.2102C67.6443 20.944 67.114 21.346 66.5061 21.4162ZM68.8265 29.9368L68.99 31.3532C67.9219 33.1149 66.8924 34.4724 65.9014 35.4256C64.9089 36.3659 64.0311 36.8801 63.2679 36.9682C62.2073 37.0906 61.354 36.6255 60.7083 35.5728C60.0625 34.5201 59.6634 33.3341 59.5111 32.0147C59.4529 31.5103 59.4494 31.0257 59.5006 30.561C59.5504 30.0834 59.6292 29.6877 59.7371 29.3738C59.8451 29.0598 60.0565 28.5636 60.3714 27.885C61.8782 24.8143 63.3948 23.1909 64.9211 23.0147C65.7101 22.9237 66.1397 23.1821 66.2099 23.7901C66.2577 24.204 66.0736 24.8806 65.6577 25.8199C65.2548 26.7577 64.8745 27.4373 64.5168 27.8587C63.5169 29.0751 62.8669 29.9169 62.567 30.3841C62.2799 30.8497 62.1678 31.3542 62.2305 31.8975C62.2842 32.3631 62.5036 32.731 62.8887 33.0012C63.2738 33.2713 63.7444 33.3742 64.3006 33.31C64.9086 33.2399 65.5493 32.9431 66.2229 32.4197C66.908 31.8819 67.7758 31.0542 68.8265 29.9368Z" fill="#E3B23C"/>
<path d="M83.1843 28.2796L83.3254 29.5019C82.3329 30.783 81.4653 31.84 80.7226 32.6728C79.9913 33.4913 79.3369 34.1239 78.7593 34.5706C78.1946 35.0159 77.6989 35.2632 77.272 35.3125C76.2631 35.4289 75.69 34.8921 75.5526 33.7021C75.4421 32.7449 75.6249 31.6032 76.101 30.2768C76.5885 28.936 77.3222 27.344 78.3022 25.5007C77.7575 25.8913 77.251 26.3298 76.7829 26.8164C76.3133 27.2901 75.9048 27.7829 75.5576 28.2948C75.2089 28.7938 74.9174 29.2207 74.6831 29.5754C73.9513 30.6167 73.2548 31.6801 72.5937 32.7657C71.931 33.8383 71.4811 34.5391 71.2438 34.8679C71.0065 35.1968 70.765 35.3754 70.5192 35.4038C69.5103 35.5202 68.8625 34.3367 68.5758 31.8532C68.4818 31.0383 68.5009 30.1251 68.6332 29.1137C68.7655 28.1023 69.2751 26.7262 70.1621 24.9854C72.0345 21.3352 73.6488 18.3439 75.0049 16.0115C76.3724 13.6648 77.5231 11.8804 78.4568 10.6585C79.3891 9.4237 80.0378 8.79832 80.403 8.78239C80.8602 8.76894 81.2328 8.81768 81.5209 8.92861C81.8219 9.03805 81.9828 9.18331 82.0037 9.3644C82.041 9.68777 81.8766 10.2507 81.5105 11.0532C81.1558 11.8412 80.5263 13.087 79.6219 14.7905C78.6374 16.595 77.939 17.8683 77.5266 18.6106C77.1127 19.34 76.4866 20.3887 75.6484 21.7569C74.8216 23.1106 74.0575 24.326 73.3561 25.4032C72.6661 26.4659 71.8694 27.6261 70.966 28.8838L71.2347 31.2121C72.7455 29.0847 74.0638 27.3334 75.1896 25.9583C76.3154 24.5832 77.2823 23.5344 78.0902 22.812C78.8966 22.0767 79.5068 21.6851 79.9207 21.6373C80.3087 21.5925 80.6978 21.7836 81.0878 22.2104C81.4764 22.6243 81.6878 22.98 81.7222 23.2775C81.7371 23.4069 81.6911 23.576 81.5842 23.785C80.7812 25.0049 80.1442 26.0156 79.6731 26.8171C79.2135 27.6041 78.8685 28.3059 78.6382 28.9223C78.4063 29.5257 78.3143 30.0344 78.3621 30.4484C78.4323 31.0563 78.7584 31.3267 79.3405 31.2595C79.9613 31.1878 81.2426 30.1945 83.1843 28.2796Z" fill="#E3B23C"/>
<path d="M85.0535 24.5445C86.8136 22.5325 88.5684 20.9865 90.3181 19.9064C92.0678 18.8262 93.4471 18.2279 94.456 18.1115C94.7276 18.0801 94.9933 18.1674 95.253 18.3734C95.5112 18.5664 95.7222 18.8042 95.8859 19.0867C96.0625 19.3678 96.159 19.5795 96.1754 19.7218C96.2023 19.9546 96.1319 20.1397 95.9643 20.277C95.7951 20.4014 95.4931 20.5673 95.0583 20.7748C95.1728 20.9713 95.3198 21.223 95.4994 21.53C95.679 21.8369 95.8196 22.0894 95.9211 22.2874C96.0211 22.4725 96.08 22.6426 96.0979 22.7978C96.1338 23.1083 95.8841 23.7269 95.3488 24.6538C94.8249 25.5662 94.4568 26.2379 94.2444 26.6687C94.0449 27.0981 93.9788 27.6038 94.046 28.1859C94.1565 29.143 94.6515 29.5709 95.5311 29.4693C96.4365 29.3648 97.7551 28.3541 99.4868 26.4372L99.6234 27.6207C96.7704 31.6332 94.639 33.7208 93.229 33.8835C92.7246 33.9417 92.343 33.8154 92.0843 33.5045C91.84 33.205 91.6805 32.7319 91.6059 32.0851C91.4879 31.0633 91.6856 29.5396 92.199 27.5143C90.5523 29.8277 89.3213 31.4837 88.506 32.4822C87.6891 33.4678 86.9832 33.995 86.3882 34.0636C86.1036 34.0965 85.7195 33.8918 85.2359 33.4495C84.7524 33.0073 84.2976 32.4175 83.8717 31.6802C83.4573 30.9285 83.2015 30.1323 83.1045 29.2915C83.0343 28.6835 83.0343 28.1724 83.1044 27.7579C83.1731 27.3306 83.3509 26.8841 83.6379 26.4184C83.925 25.9527 84.3968 25.3281 85.0535 24.5445ZM94.1009 21.3375C90.9155 23.265 88.6669 24.8483 87.355 26.0877C86.0561 27.3255 85.4723 28.5136 85.6037 29.6518C85.6515 30.0657 85.7622 30.4003 85.9358 30.6555C86.108 30.8978 86.3169 31.0048 86.5627 30.9764C86.705 30.96 86.9467 30.8403 87.288 30.6174C88.5536 29.6587 89.6752 28.4741 90.6527 27.0636C91.6288 25.6402 92.7782 23.7315 94.1009 21.3375Z" fill="#E3B23C"/>
<path d="M111.999 21.395C110.015 24.193 109.081 26.09 109.196 27.086C109.26 27.6422 109.518 27.8942 109.971 27.8419C110.346 27.7987 110.809 27.5486 111.359 27.0919C111.921 26.6208 112.783 25.8068 113.948 24.6501L114.102 25.9888C112.474 28.0117 111.215 29.4809 110.325 30.3964C109.434 31.3118 108.679 31.8053 108.058 31.877C106.997 31.9994 106.386 31.3622 106.225 29.9652C106.177 29.5513 106.195 29.1363 106.278 28.7204C106.361 28.3045 106.488 27.8704 106.658 27.4182C106.84 26.9515 107.118 26.2904 107.491 25.4346C107.863 24.566 108.293 23.5857 108.783 22.4936C108.089 22.9538 107.25 23.8043 106.266 25.0451C105.623 25.8272 105.085 26.5643 104.654 27.2564C104.221 27.9355 103.758 28.6967 103.266 29.5399C102.785 30.3688 102.424 30.9347 102.184 31.2377C101.955 31.5263 101.705 31.6862 101.433 31.7176C101.019 31.7653 100.588 31.3761 100.138 30.5497C99.6892 29.7234 99.3981 28.7346 99.2652 27.5834C99.1831 26.872 99.1965 26.3068 99.3055 25.8879C99.4273 25.4675 99.685 24.8611 100.078 24.0686C100.813 22.5944 101.467 21.5031 102.04 20.7947C102.612 20.0733 103.196 19.6782 103.791 19.6096C104.205 19.5618 104.543 19.5948 104.805 19.7088C105.08 19.8212 105.235 20.0262 105.269 20.3237C105.284 20.453 105.261 20.5933 105.2 20.7445C105.139 20.8958 105.063 21.0356 104.973 21.1639C104.896 21.2908 104.722 21.5403 104.45 21.9125C102.667 24.412 101.815 25.998 101.893 26.6707C101.936 27.0458 102.081 27.2191 102.326 27.1908C102.482 27.1729 102.751 26.8928 103.134 26.3505C103.528 25.7937 104.028 25.0741 104.634 24.1915C105.252 23.2945 105.988 22.3509 106.844 21.3609C107.712 20.3693 108.714 19.3952 109.849 18.4384C110.479 17.8807 111.021 17.5757 111.473 17.5235C111.68 17.4996 111.914 17.761 112.173 18.3078C112.446 18.853 112.616 19.4167 112.683 19.9987C112.716 20.2833 112.488 20.7487 111.999 21.395Z" fill="#E3B23C"/>
<path d="M149.182 20.5831L149.328 21.8443C147.434 24.5139 145.666 26.7366 144.022 28.5122C142.394 30.2993 140.761 31.7133 139.125 32.7541C137.49 33.8079 135.864 34.4281 134.247 34.6147C132.851 34.7759 131.615 34.6367 130.542 34.1969C129.482 33.7557 128.631 33.0281 127.99 32.0143C127.363 31.0118 126.965 29.7798 126.797 28.3181C126.664 27.1669 126.705 25.9301 126.919 24.6078C127.145 23.271 127.531 21.9091 128.079 20.522C128.625 19.122 129.322 17.6653 130.17 16.1519C131.031 14.637 132.058 13.0307 133.251 11.3332C134.49 9.57798 135.735 8.04489 136.987 6.73392C138.236 5.41002 139.386 4.35329 140.435 3.56371C141.484 2.77414 142.469 2.16242 143.389 1.72857C144.321 1.29322 145.105 1.03896 145.738 0.965804C146.385 0.891153 146.953 0.98292 147.441 1.2411C147.93 1.49929 148.331 1.9117 148.646 2.47834C148.96 3.04498 149.162 3.71635 149.252 4.49245C149.421 5.9541 149.111 7.64138 148.322 9.5543C147.532 11.4543 146.49 13.3244 145.195 15.1647C143.9 17.005 142.635 18.5339 141.399 19.7513C140.175 20.9543 139.265 21.5902 138.67 21.6589C138.269 21.7052 137.876 21.5932 137.491 21.3231C137.117 21.0385 136.907 20.6958 136.861 20.2948C136.776 19.5575 137.061 18.6202 137.716 17.4829C138.384 16.3441 139.127 15.2884 139.946 14.3157C140.776 13.3286 141.281 12.8247 141.462 12.8037C141.553 12.7933 141.602 12.8269 141.611 12.9045C141.625 13.0209 141.577 13.2296 141.467 13.5306C141.371 13.8301 141.326 14.0122 141.334 14.0769C141.346 14.1803 141.391 14.2276 141.468 14.2186C141.688 14.1933 142.254 13.5316 143.166 12.2335C144.078 10.9355 144.886 9.53155 145.589 8.02161C146.305 6.49724 146.61 5.28233 146.506 4.37689C146.462 4.00177 146.345 3.72691 146.155 3.55229C145.976 3.36325 145.725 3.28739 145.401 3.32472C144.496 3.42923 143.203 4.32553 141.524 6.01361C139.856 7.68727 138.183 9.77435 136.506 12.2749C134.839 14.7609 133.499 17.288 132.485 19.8562C131.471 22.4243 131.07 24.6268 131.282 26.4635C131.404 27.5242 131.661 28.3923 132.054 29.0679C132.46 29.742 132.989 30.238 133.641 30.5559C134.307 30.8723 135.073 30.9804 135.94 30.8804C137.815 30.6639 139.859 29.6875 142.07 27.9511C144.281 26.2148 146.652 23.7588 149.182 20.5831Z" fill="#E3B23C"/>
<path d="M161.507 19.1998L161.657 20.4998C160.893 21.3744 160.268 21.9709 159.78 22.2894C159.292 22.6078 158.561 22.7971 157.585 22.8573C156.133 25.0434 154.767 26.2104 153.486 26.3582C152.762 26.4418 152.075 26.2786 151.424 25.8687C150.774 25.4588 150.22 24.8608 149.762 24.0748C149.318 23.2873 149.036 22.3826 148.918 21.3607C148.823 20.5329 148.988 19.5831 149.415 18.5115C149.855 17.4384 150.458 16.4185 151.225 15.4518C152.003 14.4707 152.859 13.6575 153.794 13.0122C154.727 12.354 155.621 11.9756 156.474 11.8771C157.082 11.8069 157.572 11.8487 157.944 12.0024C158.314 12.1431 158.518 12.3817 158.557 12.718C158.587 12.9767 158.473 13.2914 158.214 13.662C158.717 13.7088 159.074 13.8446 159.283 14.0694C159.491 14.2814 159.632 14.7042 159.705 15.338C159.777 15.9589 159.718 16.7587 159.53 17.7372C159.354 18.7143 159.062 19.6459 158.653 20.532L159.043 20.8409L159.334 20.8073C159.554 20.7819 159.761 20.7056 159.956 20.5782C160.162 20.4364 160.343 20.2976 160.498 20.1618C160.651 20.013 160.988 19.6924 161.507 19.1998ZM156.922 14.5583C155.923 15.329 155.072 16.0235 154.37 16.642C153.667 17.2474 153.081 17.8524 152.614 18.4569C152.144 19.0484 151.851 19.6263 151.732 20.1905C151.576 21.6765 151.505 22.4777 151.518 22.5942C151.617 23.4479 152.261 23.806 153.451 23.6687C154.007 23.6045 154.883 23.0184 156.079 21.9104C155.789 21.3279 155.612 20.7585 155.548 20.2023C155.454 19.3874 155.526 18.5401 155.766 17.6605C156.003 16.768 156.389 15.7339 156.922 14.5583Z" fill="#E3B23C"/>
<path d="M164.962 25.1122C164.742 25.1376 164.545 25.0752 164.37 24.9249C164.196 24.7747 164.091 24.5508 164.057 24.2533C164.03 24.0205 164.118 23.5909 164.321 22.9645C164.535 22.3237 164.823 21.7466 165.183 21.2332C165.554 20.7053 165.967 20.4153 166.419 20.363C166.975 20.2988 167.292 20.5966 167.368 21.2562C167.41 21.6184 167.315 22.1077 167.085 22.7241C166.853 23.3276 166.542 23.8682 166.152 24.3458C165.76 24.8105 165.363 25.0659 164.962 25.1122Z" fill="#E3B23C"/>
<path d="M69.6634 46.5H69.196C69.1612 46.326 69.0983 46.1652 69.0071 46.0178C68.9176 45.8686 68.8049 45.7385 68.6691 45.6275C68.5332 45.5165 68.379 45.4303 68.2067 45.369C68.0343 45.3076 67.8479 45.277 67.6474 45.277C67.3259 45.277 67.0326 45.3607 66.7674 45.5281C66.5039 45.6954 66.2926 45.9415 66.1335 46.2663C65.9761 46.5895 65.8974 46.9856 65.8974 47.4545C65.8974 47.9268 65.9761 48.3246 66.1335 48.6477C66.2926 48.9709 66.5039 49.2161 66.7674 49.3835C67.0326 49.5492 67.3259 49.6321 67.6474 49.6321C67.8479 49.6321 68.0343 49.6014 68.2067 49.5401C68.379 49.4788 68.5332 49.3935 68.6691 49.2841C68.8049 49.1731 68.9176 49.043 69.0071 48.8938C69.0983 48.7447 69.1612 48.5831 69.196 48.4091H69.6634C69.6219 48.6428 69.544 48.8607 69.4297 49.0629C69.317 49.2634 69.1728 49.439 68.9972 49.5898C68.8232 49.7407 68.6227 49.8583 68.3956 49.9428C68.1686 50.0273 67.9192 50.0696 67.6474 50.0696C67.2198 50.0696 66.8403 49.9627 66.5089 49.7489C66.1775 49.5335 65.9173 49.2302 65.7284 48.8391C65.5411 48.448 65.4475 47.9865 65.4475 47.4545C65.4475 46.9226 65.5411 46.4611 65.7284 46.07C65.9173 45.6789 66.1775 45.3764 66.5089 45.1626C66.8403 44.9472 67.2198 44.8395 67.6474 44.8395C67.9192 44.8395 68.1686 44.8817 68.3956 44.9663C68.6227 45.0491 68.8232 45.1668 68.9972 45.3192C69.1728 45.4701 69.317 45.6457 69.4297 45.8462C69.544 46.0468 69.6219 46.2647 69.6634 46.5Z" fill="white"/>
<path d="M70.7552 50V44.9091H72.3984C72.7596 44.9091 73.0612 44.9746 73.3032 45.1055C73.5468 45.2347 73.7299 45.4145 73.8526 45.6449C73.9768 45.8736 74.039 46.1362 74.039 46.4329C74.039 46.7295 73.9768 46.9914 73.8526 47.2184C73.7299 47.4454 73.5476 47.6228 73.3057 47.7504C73.0637 47.878 72.7638 47.9418 72.4058 47.9418H71.0063V47.5167H72.3934C72.6585 47.5167 72.8789 47.4728 73.0546 47.3849C73.2319 47.2971 73.3637 47.172 73.4499 47.0096C73.5377 46.8472 73.5816 46.655 73.5816 46.4329C73.5816 46.2108 73.5377 46.0169 73.4499 45.8512C73.362 45.6838 73.2294 45.5546 73.0521 45.4634C72.8765 45.3723 72.6544 45.3267 72.3859 45.3267H71.2201V50H70.7552ZM72.9999 47.7031L74.2528 50H73.7158L72.4754 47.7031H72.9999Z" fill="white"/>
<path d="M75.1787 50H74.6915L76.5434 44.9091H77.0406L78.8925 50H78.4053L76.8094 45.5131H76.7746L75.1787 50ZM75.5292 48.0487H78.0548V48.4663H75.5292V48.0487Z" fill="white"/>
<path d="M79.765 50V44.9091H82.7107V45.3267H80.2299V47.2433H82.4795V47.6609H80.2299V50H79.765Z" fill="white"/>
<path d="M83.5583 45.3267V44.9091H87.2497V45.3267H85.6365V50H85.1716V45.3267H83.5583Z" fill="white"/>
<path d="M94.2522 46.5H93.7849C93.7501 46.326 93.6871 46.1652 93.596 46.0178C93.5065 45.8686 93.3938 45.7385 93.2579 45.6275C93.122 45.5165 92.9679 45.4303 92.7956 45.369C92.6232 45.3076 92.4368 45.277 92.2363 45.277C91.9148 45.277 91.6214 45.3607 91.3563 45.5281C91.0928 45.6954 90.8815 45.9415 90.7224 46.2663C90.565 46.5895 90.4863 46.9856 90.4863 47.4545C90.4863 47.9268 90.565 48.3246 90.7224 48.6477C90.8815 48.9709 91.0928 49.2161 91.3563 49.3835C91.6214 49.5492 91.9148 49.6321 92.2363 49.6321C92.4368 49.6321 92.6232 49.6014 92.7956 49.5401C92.9679 49.4788 93.122 49.3935 93.2579 49.2841C93.3938 49.1731 93.5065 49.043 93.596 48.8938C93.6871 48.7447 93.7501 48.5831 93.7849 48.4091H94.2522C94.2108 48.6428 94.1329 48.8607 94.0186 49.0629C93.9059 49.2634 93.7617 49.439 93.586 49.5898C93.412 49.7407 93.2115 49.8583 92.9845 49.9428C92.7574 50.0273 92.508 50.0696 92.2363 50.0696C91.8087 50.0696 91.4292 49.9627 91.0978 49.7489C90.7663 49.5335 90.5061 49.2302 90.3172 48.8391C90.13 48.448 90.0363 47.9865 90.0363 47.4545C90.0363 46.9226 90.13 46.4611 90.3172 46.07C90.5061 45.6789 90.7663 45.3764 91.0978 45.1626C91.4292 44.9472 91.8087 44.8395 92.2363 44.8395C92.508 44.8395 92.7574 44.8817 92.9845 44.9663C93.2115 45.0491 93.412 45.1668 93.586 45.3192C93.7617 45.4701 93.9059 45.6457 94.0186 45.8462C94.1329 46.0468 94.2108 46.2647 94.2522 46.5Z" fill="white"/>
<path d="M99.5178 47.4545C99.5178 47.9849 99.4233 48.4464 99.2344 48.8391C99.0455 49.2302 98.7853 49.5335 98.4538 49.7489C98.1241 49.9627 97.7446 50.0696 97.3154 50.0696C96.8861 50.0696 96.5058 49.9627 96.1744 49.7489C95.8446 49.5335 95.5852 49.2302 95.3963 48.8391C95.2091 48.4464 95.1154 47.9849 95.1154 47.4545C95.1154 46.9242 95.2091 46.4635 95.3963 46.0724C95.5852 45.6797 95.8454 45.3764 96.1769 45.1626C96.5083 44.9472 96.8878 44.8395 97.3154 44.8395C97.7446 44.8395 98.1241 44.9472 98.4538 45.1626C98.7853 45.3764 99.0455 45.6797 99.2344 46.0724C99.4233 46.4635 99.5178 46.9242 99.5178 47.4545ZM99.0654 47.4545C99.0654 46.9988 98.9891 46.6085 98.8367 46.2837C98.6842 45.9573 98.4762 45.7079 98.2127 45.5355C97.9492 45.3632 97.6501 45.277 97.3154 45.277C96.9823 45.277 96.684 45.3632 96.4205 45.5355C96.157 45.7079 95.9482 45.9564 95.7941 46.2813C95.6416 46.6061 95.5654 46.9972 95.5654 47.4545C95.5654 47.9103 95.6416 48.3005 95.7941 48.6254C95.9465 48.9502 96.1545 49.1996 96.418 49.3736C96.6815 49.5459 96.9806 49.6321 97.3154 49.6321C97.6501 49.6321 97.9492 49.5459 98.2127 49.3736C98.4779 49.2012 98.6867 48.9527 98.8391 48.6278C98.9916 48.3014 99.067 47.9103 99.0654 47.4545Z" fill="white"/>
<path d="M100.642 50V44.9091H103.588V45.3267H101.107V47.2433H103.356V47.6609H101.107V50H100.642Z" fill="white"/>
<path d="M104.744 50V44.9091H107.689V45.3267H105.208V47.2433H107.458V47.6609H105.208V50H104.744Z" fill="white"/>
<path d="M108.845 50V44.9091H111.798V45.3267H109.31V47.2433H111.642V47.6609H109.31V49.5824H111.848V50H108.845Z" fill="white"/>
<path d="M113.001 50V44.9091H115.954V45.3267H113.466V47.2433H115.798V47.6609H113.466V49.5824H116.004V50H113.001Z" fill="white"/>
<path d="M82.483 56V52.3636H84.5923V52.6619H82.815V54.0309H84.4805V54.3292H82.815V55.7017H84.6279V56H82.483Z" fill="white"/>
<path d="M85.6382 56.0266C85.5683 56.0266 85.5079 56.0018 85.457 55.9521C85.4073 55.9012 85.3825 55.8408 85.3825 55.771C85.3825 55.6999 85.4073 55.6396 85.457 55.5898C85.5079 55.5401 85.5683 55.5153 85.6382 55.5153C85.7092 55.5153 85.7695 55.5401 85.8193 55.5898C85.869 55.6396 85.8938 55.6999 85.8938 55.771C85.8938 55.8171 85.882 55.8597 85.8583 55.8988C85.8358 55.9379 85.8051 55.9692 85.766 55.9929C85.7281 56.0154 85.6855 56.0266 85.6382 56.0266Z" fill="white"/>
<path d="M89.2448 52.3636V56H88.9127V52.7117H88.8914L88.0392 53.2781V52.9336L88.8985 52.3636H89.2448Z" fill="white"/>
<path d="M91.4429 52.3139C91.5944 52.3151 91.7412 52.3459 91.8833 52.4063C92.0265 52.4654 92.1555 52.5613 92.2703 52.6939C92.3852 52.8253 92.4763 53.0005 92.5438 53.2195C92.6113 53.4373 92.645 53.7054 92.645 54.0238C92.645 54.3209 92.6189 54.5932 92.5669 54.8406C92.5148 55.088 92.4367 55.3022 92.3325 55.4833C92.2295 55.6632 92.0993 55.8029 91.9419 55.9023C91.7856 56.0006 91.6027 56.0497 91.3932 56.0497C91.1979 56.0497 91.0245 56.0089 90.873 55.9272C90.7226 55.8455 90.6007 55.7325 90.5072 55.5881C90.4137 55.4425 90.3557 55.2744 90.3332 55.0838H90.6599C90.6919 55.2779 90.77 55.4377 90.8943 55.5632C91.0198 55.6887 91.1861 55.7514 91.3932 55.7514C91.6903 55.7514 91.9211 55.6129 92.0857 55.3359C92.2502 55.059 92.3325 54.6648 92.3325 54.1534H92.3094C92.2526 54.2599 92.178 54.3529 92.0857 54.4322C91.9945 54.5115 91.8904 54.5736 91.7732 54.6186C91.656 54.6624 91.5323 54.6843 91.4021 54.6843C91.1997 54.6843 91.0144 54.6334 90.8463 54.5316C90.6782 54.4286 90.5439 54.2884 90.4433 54.1108C90.3427 53.9321 90.2924 53.7285 90.2924 53.5C90.2924 53.2846 90.3397 53.0869 90.4344 52.907C90.5303 52.7259 90.664 52.5814 90.8357 52.4737C91.0085 52.3648 91.2109 52.3116 91.4429 52.3139ZM91.4429 52.6122C91.2855 52.6122 91.144 52.6525 91.0186 52.733C90.8943 52.8123 90.7954 52.9194 90.722 53.0543C90.6498 53.1881 90.6137 53.3367 90.6137 53.5C90.6137 53.6645 90.6498 53.8143 90.722 53.9492C90.7954 54.083 90.8943 54.1895 91.0186 54.2688C91.144 54.347 91.2855 54.386 91.4429 54.386C91.5637 54.386 91.6761 54.3617 91.7803 54.3132C91.8845 54.2635 91.9744 54.196 92.0502 54.1108C92.1271 54.0256 92.1851 53.9291 92.2242 53.8214C92.2644 53.7125 92.2804 53.5982 92.2721 53.4787C92.2579 53.313 92.2135 53.165 92.139 53.0348C92.0656 52.9034 91.9685 52.8004 91.8478 52.7259C91.7282 52.6501 91.5933 52.6122 91.4429 52.6122Z" fill="white"/>
<path d="M94.4898 52.3139C94.6413 52.3151 94.7881 52.3459 94.9301 52.4063C95.0734 52.4654 95.2024 52.5613 95.3172 52.6939C95.432 52.8253 95.5232 53.0005 95.5907 53.2195C95.6581 53.4373 95.6919 53.7054 95.6919 54.0238C95.6919 54.3209 95.6658 54.5932 95.6137 54.8406C95.5617 55.088 95.4835 55.3022 95.3794 55.4833C95.2764 55.6632 95.1462 55.8029 94.9887 55.9023C94.8325 56.0006 94.6496 56.0497 94.4401 56.0497C94.2448 56.0497 94.0714 56.0089 93.9198 55.9272C93.7695 55.8455 93.6476 55.7325 93.5541 55.5881C93.4606 55.4425 93.4026 55.2744 93.3801 55.0838H93.7068C93.7387 55.2779 93.8169 55.4377 93.9412 55.5632C94.0666 55.6887 94.2329 55.7514 94.4401 55.7514C94.7372 55.7514 94.968 55.6129 95.1326 55.3359C95.2971 55.059 95.3794 54.6648 95.3794 54.1534H95.3563C95.2995 54.2599 95.2249 54.3529 95.1326 54.4322C95.0414 54.5115 94.9372 54.5736 94.8201 54.6186C94.7029 54.6624 94.5792 54.6843 94.449 54.6843C94.2466 54.6843 94.0613 54.6334 93.8932 54.5316C93.7251 54.4286 93.5908 54.2884 93.4902 54.1108C93.3895 53.9321 93.3392 53.7285 93.3392 53.5C93.3392 53.2846 93.3866 53.0869 93.4813 52.907C93.5772 52.7259 93.7109 52.5814 93.8826 52.4737C94.0554 52.3648 94.2578 52.3116 94.4898 52.3139ZM94.4898 52.6122C94.3324 52.6122 94.1909 52.6525 94.0654 52.733C93.9412 52.8123 93.8423 52.9194 93.7689 53.0543C93.6967 53.1881 93.6606 53.3367 93.6606 53.5C93.6606 53.6645 93.6967 53.8143 93.7689 53.9492C93.8423 54.083 93.9412 54.1895 94.0654 54.2688C94.1909 54.347 94.3324 54.386 94.4898 54.386C94.6105 54.386 94.723 54.3617 94.8272 54.3132C94.9313 54.2635 95.0213 54.196 95.097 54.1108C95.174 54.0256 95.232 53.9291 95.2711 53.8214C95.3113 53.7125 95.3273 53.5982 95.319 53.4787C95.3048 53.313 95.2604 53.165 95.1858 53.0348C95.1124 52.9034 95.0154 52.8004 94.8946 52.7259C94.7751 52.6501 94.6401 52.6122 94.4898 52.6122Z" fill="white"/>
<path d="M97.5669 56.0497C97.3349 56.0497 97.1283 56.0059 96.9472 55.9183C96.7661 55.8307 96.624 55.7112 96.5211 55.5597C96.4181 55.407 96.3666 55.2347 96.3666 55.043C96.3666 54.8926 96.3979 54.7524 96.4607 54.6222C96.5234 54.4908 96.6098 54.3807 96.7199 54.2919C96.83 54.2019 96.9537 54.1433 97.091 54.1161V54.0966C96.9123 54.0445 96.7684 53.9421 96.6595 53.7894C96.5506 53.6355 96.4968 53.4609 96.498 53.2656C96.4968 53.0845 96.543 52.9224 96.6365 52.7791C96.73 52.6359 96.8572 52.5228 97.0182 52.44C97.1804 52.3559 97.3633 52.3139 97.5669 52.3139C97.7693 52.3139 97.951 52.3559 98.112 52.44C98.2729 52.5228 98.4002 52.6359 98.4937 52.7791C98.5884 52.9224 98.6364 53.0845 98.6375 53.2656C98.6364 53.4598 98.5813 53.6344 98.4724 53.7894C98.3635 53.9433 98.2203 54.0457 98.0427 54.0966V54.1161C98.18 54.1422 98.3031 54.2002 98.412 54.2901C98.5209 54.3801 98.6073 54.4908 98.6713 54.6222C98.7352 54.7524 98.7672 54.8926 98.7672 55.043C98.7672 55.2347 98.7151 55.407 98.6109 55.5597C98.5079 55.7112 98.3659 55.8307 98.1848 55.9183C98.0048 56.0059 97.7989 56.0497 97.5669 56.0497ZM97.5669 55.7514C97.7397 55.7514 97.8912 55.7206 98.0214 55.6591C98.1528 55.5964 98.2552 55.5105 98.3286 55.4016C98.4032 55.2927 98.4404 55.1679 98.4404 55.027C98.4404 54.8814 98.402 54.7518 98.325 54.6381C98.2481 54.5233 98.1439 54.4328 98.0125 54.3665C97.8811 54.299 97.7326 54.2653 97.5669 54.2653C97.4011 54.2653 97.252 54.299 97.1194 54.3665C96.988 54.4328 96.8839 54.5233 96.8069 54.6381C96.7312 54.7518 96.6933 54.8814 96.6933 55.027C96.6933 55.1679 96.7294 55.2927 96.8016 55.4016C96.875 55.5105 96.9774 55.5964 97.1088 55.6591C97.2413 55.7206 97.394 55.7514 97.5669 55.7514ZM97.5669 53.9812C97.7089 53.9812 97.8362 53.951 97.9486 53.8906C98.0611 53.8303 98.1498 53.748 98.215 53.6438C98.2812 53.5385 98.315 53.4189 98.3162 53.2852C98.315 53.1526 98.2818 53.0354 98.2167 52.9336C98.1516 52.8306 98.0628 52.7507 97.9504 52.6939C97.8391 52.6359 97.7113 52.6069 97.5669 52.6069C97.4225 52.6069 97.2934 52.6359 97.1798 52.6939C97.0673 52.7507 96.9786 52.8306 96.9135 52.9336C96.8495 53.0354 96.8182 53.1526 96.8194 53.2852C96.8182 53.4189 96.8501 53.5385 96.9152 53.6438C96.9815 53.748 97.0709 53.8303 97.1833 53.8906C97.297 53.951 97.4248 53.9812 97.5669 53.9812Z" fill="white"/>
</svg>
