<svg width="113" height="12" viewBox="0 0 113 12" fill="none" xmlns="http://www.w3.org/2000/svg">
<path id="Vector" d="M9.85388 3.71739H8.81781C8.74067 3.33156 8.60103 2.975 8.39909 2.64816C8.2007 2.31732 7.95087 2.02884 7.64963 1.78271C7.34838 1.53658 7.0068 1.34544 6.62487 1.20951C6.24272 1.07337 5.82952 1.00552 5.38508 1.00552C4.67242 1.00552 4.02228 1.19111 3.43442 1.5623C2.85033 1.93327 2.38194 2.47897 2.02927 3.19918C1.68037 3.91584 1.50592 4.79415 1.50592 5.83388C1.50592 6.88116 1.68037 7.76324 2.02927 8.47968C2.38194 9.19634 2.85033 9.74004 3.43442 10.1112C4.02228 10.4787 4.67242 10.6625 5.38508 10.6625C5.82952 10.6625 6.24272 10.5944 6.62487 10.4585C7.0068 10.3226 7.34838 10.1334 7.64963 9.89082C7.95087 9.64469 8.2007 9.35621 8.39909 9.02537C8.60103 8.69476 8.74067 8.33643 8.81781 7.95061H9.85388C9.76189 8.46881 9.58922 8.95198 9.33585 9.40034C9.08604 9.84493 8.76639 10.2343 8.37714 10.5687C7.99144 10.9031 7.54677 11.164 7.04359 11.3514C6.54041 11.5388 5.98757 11.6326 5.38508 11.6326C4.43724 11.6326 3.59602 11.3955 2.86142 10.9215C2.12659 10.4438 1.55003 9.77131 1.13108 8.90409C0.716122 8.03686 0.508423 7.01353 0.508423 5.83388C0.508423 4.65445 0.716122 3.63113 1.13108 2.76391C1.55003 1.89668 2.12659 1.22593 2.86142 0.751849C3.59602 0.274223 4.43724 0.035408 5.38508 0.035408C5.98757 0.035408 6.54041 0.128983 7.04359 0.316574C7.54677 0.500174 7.99144 0.761156 8.37714 1.09909C8.76639 1.43369 9.08604 1.82307 9.33585 2.26765C9.58922 2.71246 9.76189 3.19563 9.85388 3.71739ZM12.274 11.4783V0.189737H15.9162C16.7171 0.189737 17.3857 0.334975 17.9221 0.625232C18.4621 0.911718 18.868 1.31041 19.1397 1.8213C19.4153 2.32841 19.5531 2.9107 19.5531 3.5686C19.5531 4.22628 19.4153 4.80701 19.1397 5.31036C18.868 5.8137 18.4639 6.20707 17.9277 6.49001C17.3912 6.77295 16.7264 6.91442 15.9329 6.91442H12.8306V5.97181H15.9054C16.493 5.97181 16.9816 5.87446 17.3711 5.67955C17.7641 5.48487 18.0562 5.20748 18.2471 4.84737C18.4419 4.48727 18.5392 4.06086 18.5392 3.5686C18.5392 3.07611 18.4419 2.64616 18.2471 2.27874C18.0524 1.90755 17.7585 1.62107 17.3655 1.41884C16.9763 1.21684 16.4839 1.11572 15.8888 1.11572H13.3046V11.4783H12.274ZM17.2498 6.38512L20.0271 11.4783H18.8367L16.0872 6.38512H17.2498ZM22.0795 11.4783H20.9995L25.1046 0.189737H26.2067L30.3117 11.4783H29.2318L25.6942 1.52904H25.617L22.0795 11.4783ZM22.8564 7.15146H28.4548V8.07744H22.8564V7.15146ZM32.2458 11.4783V0.189737H38.7754V1.11572H33.2761V5.36558H38.2629V6.29155H33.2761V11.4783H32.2458ZM40.6542 1.11572V0.189737H48.8369V1.11572H45.2609V11.4783H44.2304V1.11572H40.6542ZM64.3591 3.71739H63.3232C63.2461 3.33156 63.1064 2.975 62.9045 2.64816C62.7061 2.31732 62.4563 2.02884 62.155 1.78271C61.8538 1.53658 61.5122 1.34544 61.13 1.20951C60.7481 1.07337 60.3349 1.00552 59.8903 1.00552C59.1776 1.00552 58.5275 1.19111 57.9398 1.5623C57.3557 1.93327 56.8873 2.47897 56.5347 3.19918C56.1858 3.91584 56.0111 4.79415 56.0111 5.83388C56.0111 6.88116 56.1858 7.76324 56.5347 8.47968C56.8873 9.19634 57.3557 9.74004 57.9398 10.1112C58.5275 10.4787 59.1776 10.6625 59.8903 10.6625C60.3349 10.6625 60.7481 10.5944 61.13 10.4585C61.5122 10.3226 61.8538 10.1334 62.155 9.89082C62.4563 9.64469 62.7061 9.35621 62.9045 9.02537C63.1064 8.69476 63.2461 8.33643 63.3232 7.95061H64.3591C64.2673 8.46881 64.0946 8.95198 63.8412 9.40034C63.5914 9.84493 63.2718 10.2343 62.8823 10.5687C62.4966 10.9031 62.0522 11.164 61.549 11.3514C61.0456 11.5388 60.4927 11.6326 59.8903 11.6326C58.9426 11.6326 58.1014 11.3955 57.3666 10.9215C56.632 10.4438 56.0552 9.77131 55.6365 8.90409C55.2213 8.03686 55.0138 7.01353 55.0138 5.83388C55.0138 4.65445 55.2213 3.63113 55.6365 2.76391C56.0552 1.89668 56.632 1.22593 57.3666 0.751849C58.1014 0.274223 58.9426 0.035408 59.8903 0.035408C60.4927 0.035408 61.0456 0.128983 61.549 0.316574C62.0522 0.500174 62.4966 0.761156 62.8823 1.09909C63.2718 1.43369 63.5914 1.82307 63.8412 2.26765C64.0946 2.71246 64.2673 3.19563 64.3591 3.71739ZM76.0316 5.83388C76.0316 7.00976 75.821 8.03332 75.402 8.90409C74.9831 9.77131 74.4068 10.4438 73.673 10.9215C72.9416 11.3955 72.1005 11.6326 71.1489 11.6326C70.1975 11.6326 69.3545 11.3955 68.6199 10.9215C67.8889 10.4438 67.3139 9.77131 66.8951 8.90409C66.48 8.03332 66.2725 7.00976 66.2725 5.83388C66.2725 4.658 66.48 3.63645 66.8951 2.76923C67.3139 1.89846 67.8907 1.22593 68.6253 0.751849C69.3601 0.274223 70.2013 0.035408 71.1489 0.035408C72.1005 0.035408 72.9416 0.274223 73.673 0.751849C74.4068 1.22593 74.9831 1.89846 75.402 2.76923C75.821 3.63645 76.0316 4.658 76.0316 5.83388ZM75.0274 5.83388C75.0274 4.82342 74.859 3.95797 74.522 3.23776C74.1829 2.514 73.7218 1.96099 73.1388 1.57871C72.5541 1.19665 71.8911 1.00552 71.1489 1.00552C70.4106 1.00552 69.7493 1.19665 69.1655 1.57871C68.5814 1.96099 68.1185 2.51201 67.7767 3.23222C67.4389 3.95265 67.2698 4.81987 67.2698 5.83388C67.2698 6.84457 67.4389 7.7098 67.7767 8.43023C68.1148 9.15044 68.5758 9.70345 69.1599 10.0893C69.744 10.4713 70.407 10.6625 71.1489 10.6625C71.8911 10.6625 72.5541 10.4713 73.1388 10.0893C73.7262 9.707 74.1895 9.15598 74.5265 8.43555C74.8656 7.71179 75.0319 6.84457 75.0274 5.83388ZM78.5231 11.4783V0.189737H85.0534V1.11572H79.5539V5.36558H84.5392V6.29155H79.5539V11.4783H78.5231ZM87.6159 11.4783V0.189737H94.144V1.11572H88.6444V5.36558H93.6319V6.29155H88.6444V11.4783H87.6159ZM96.7064 11.4783V0.189737H103.252V1.11572H97.7372V5.36558H102.906V6.29155H97.7372V10.5523H103.363V11.4783H96.7064ZM105.919 11.4783V0.189737H112.465V1.11572H106.95V5.36558H112.119V6.29155H106.95V10.5523H112.576V11.4783H105.919Z" fill="white"/>
</svg>
